<svg xmlns="http://www.w3.org/2000/svg" width="22" height="22" version="1.1">
 <defs>
   <style id="current-color-scheme" type="text/css">
   .ColorScheme-Text { color: #D28C73; }
  </style>
  <linearGradient id="arrongin" x1="0%" x2="0%" y1="0%" y2="100%">
   <stop offset="0%"    stop-color= "#0abdc6" stop-opacity="1"/>
   <stop offset="100%"  stop-color= "#0abdc6" stop-opacity="1"/>
  </linearGradient>
  <linearGradient id="aurora" x1="0%" x2="0%" y1="0%" y2="100%">
   <stop offset="0%"    stop-color= "#0abdc6" stop-opacity="1"/>
   <stop offset="100%"  stop-color= "#0abdc6" stop-opacity="1"/>
  </linearGradient> 
  <linearGradient id="cyberblue" x1="0%" x2="0%" y1="0%" y2="100%">
   <stop offset="0%"    stop-color= "#0abdc6" stop-opacity="1"/>
   <stop offset="100%"  stop-color= "#0abdc6" stop-opacity="1"/>
  </linearGradient>
  <linearGradient id="cyberneon" x1="0%" x2="0%" y1="0%" y2="100%">
    <stop offset="0%"   stop-color= "#0abdc6" stop-opacity="1"/>
    <stop offset="100%" stop-color= "#0abdc6" stop-opacity="1"/>
  </linearGradient>
  <linearGradient id="fitdance" x1="0%" x2="0%" y1="0%" y2="100%">
   <stop offset="0%"    stop-color= "#0abdc6" stop-opacity="1"/>
   <stop offset="100%"  stop-color= "#0abdc6" stop-opacity="1"/>
  </linearGradient>
  <linearGradient id="oomox" x1="0%" x2="0%" y1="0%" y2="100%">
   <stop offset="0%"    stop-color= "#0abdc6" stop-opacity="1"/>
   <stop offset="100%"  stop-color= "#0abdc6" stop-opacity="1"/>
  </linearGradient>
  <linearGradient id="rainblue" x1="0%" x2="0%" y1="0%" y2="100%">
   <stop offset="0%"    stop-color= "#0abdc6" stop-opacity="1"/>
   <stop offset="100%"  stop-color= "#0abdc6" stop-opacity="1"/>
  </linearGradient>
  <linearGradient id="redcarbon" x1="0%" x2="0%" y1="0%" y2="100%">
   <stop offset="0%"    stop-color= "#0abdc6" stop-opacity="1"/>
   <stop offset="50%"   stop-color= "#0abdc6" stop-opacity="1"/>
   <stop offset="100%"  stop-color= "#0abdc6" stop-opacity="1"/>
  </linearGradient>
  <linearGradient id="sunrise" x1="0%" x2="0%" y1="0%" y2="100%">
   <stop offset="0%"    stop-color= "#0abdc6" stop-opacity="1"/>
   <stop offset="100%"  stop-color= "#0abdc6" stop-opacity="1"/>
  </linearGradient>
  <linearGradient id="telinkrin" x1="0%" x2="0%" y1="0%" y2="100%">
   <stop offset="0%"    stop-color= "#0abdc6" stop-opacity="1"/>
   <stop offset="100%"  stop-color= "#0abdc6" stop-opacity="1"/>
  </linearGradient>
  <linearGradient id="60spsycho" x1="0%" x2="0%" y1="0%" y2="100%">
   <stop offset="0%"    stop-color= "#0abdc6" stop-opacity="1"/>
   <stop offset="25%"   stop-color= "#0abdc6" stop-opacity="1"/>
   <stop offset="50%"   stop-color= "#0abdc6" stop-opacity="1"/>
   <stop offset="100%"  stop-color= "#0abdc6" stop-opacity="1"/>
  </linearGradient>
  <linearGradient id="90ssummer" x1="0%" x2="0%" y1="0%" y2="100%">
   <stop offset="0%"    stop-color= "#0abdc6" stop-opacity="1"/>
   <stop offset="20%"   stop-color= "#0abdc6" stop-opacity="1"/>
   <stop offset="50%"   stop-color= "#0abdc6" stop-opacity="1"/>
   <stop offset="100%"  stop-color= "#0abdc6" stop-opacity="1"/>
  </linearGradient>
 </defs>
 <rect fill="currentColor" class="ColorScheme-Text" width="7" height="2" x="3" y="17" rx=".538" ry=".5"/>
 <rect fill="currentColor" class="ColorScheme-Text" opacity="0.3" width="7" height="2" x="3" y="15" rx=".538" ry=".5"/>
 <rect fill="currentColor" class="ColorScheme-Text" width="7" height="2" x="3" y="13" rx=".538" ry=".5"/>
 <rect fill="currentColor" class="ColorScheme-Text" opacity="0.3" width="7" height="2" x="3" y="11" rx=".538" ry=".5"/>
 <rect fill="currentColor" class="ColorScheme-Text" width="7" height="2" x="3" y="9" rx=".538" ry=".5"/>
 <rect fill="currentColor" class="ColorScheme-Text" opacity="0.3" width="7" height="2" x="3" y="7" rx=".538" ry=".5"/>
 <rect fill="currentColor" class="ColorScheme-Text" width="7" height="2" x="3" y="5" rx=".538" ry=".5"/>
 <rect fill="currentColor" class="ColorScheme-Text" opacity="0.3" width="7" height="2" x="3" y="3" rx=".538" ry=".5"/>
 <rect fill="currentColor" class="ColorScheme-Text" opacity="0.3" width="7" height="2" x="12" y="17" rx=".538" ry=".5"/>
 <rect fill="currentColor" class="ColorScheme-Text" width="7" height="2" x="12" y="15" rx=".538" ry=".5"/>
 <rect fill="currentColor" class="ColorScheme-Text" opacity="0.3" width="7" height="2" x="12" y="13" rx=".538" ry=".5"/>
 <rect fill="currentColor" class="ColorScheme-Text" width="7" height="2" x="12" y="11" rx=".538" ry=".5"/>
 <path fill="currentColor" class="ColorScheme-Text" d="m 15,3 v 2 h -2 v 2 h 2 v 2 h 2 V 7 h 2 V 5 H 17 V 3 Z"/>
</svg>
