<svg xmlns="http://www.w3.org/2000/svg" width="16" height="16" version="1.1">
 <defs>
   <style id="current-color-scheme" type="text/css">
   .ColorScheme-Text { color: #D28C73; }
  </style>
  <linearGradient id="arrongin" x1="0%" x2="0%" y1="0%" y2="100%">
   <stop offset="0%"    stop-color= "#0abdc6" stop-opacity="1"/>
   <stop offset="100%"  stop-color= "#0abdc6" stop-opacity="1"/>
  </linearGradient>
  <linearGradient id="aurora" x1="0%" x2="0%" y1="0%" y2="100%">
   <stop offset="0%"    stop-color= "#0abdc6" stop-opacity="1"/>
   <stop offset="100%"  stop-color= "#0abdc6" stop-opacity="1"/>
  </linearGradient> 
  <linearGradient id="cyberblue" x1="0%" x2="0%" y1="0%" y2="100%">
   <stop offset="0%"    stop-color= "#0abdc6" stop-opacity="1"/>
   <stop offset="100%"  stop-color= "#0abdc6" stop-opacity="1"/>
  </linearGradient>
  <linearGradient id="cyberneon" x1="0%" x2="0%" y1="0%" y2="100%">
    <stop offset="0%"   stop-color= "#0abdc6" stop-opacity="1"/>
    <stop offset="100%" stop-color= "#0abdc6" stop-opacity="1"/>
  </linearGradient>
  <linearGradient id="fitdance" x1="0%" x2="0%" y1="0%" y2="100%">
   <stop offset="0%"    stop-color= "#0abdc6" stop-opacity="1"/>
   <stop offset="100%"  stop-color= "#0abdc6" stop-opacity="1"/>
  </linearGradient>
  <linearGradient id="oomox" x1="0%" x2="0%" y1="0%" y2="100%">
   <stop offset="0%"    stop-color= "#0abdc6" stop-opacity="1"/>
   <stop offset="100%"  stop-color= "#0abdc6" stop-opacity="1"/>
  </linearGradient>
  <linearGradient id="rainblue" x1="0%" x2="0%" y1="0%" y2="100%">
   <stop offset="0%"    stop-color= "#0abdc6" stop-opacity="1"/>
   <stop offset="100%"  stop-color= "#0abdc6" stop-opacity="1"/>
  </linearGradient>
  <linearGradient id="redcarbon" x1="0%" x2="0%" y1="0%" y2="100%">
   <stop offset="0%"    stop-color= "#0abdc6" stop-opacity="1"/>
   <stop offset="50%"   stop-color= "#0abdc6" stop-opacity="1"/>
   <stop offset="100%"  stop-color= "#0abdc6" stop-opacity="1"/>
  </linearGradient>
  <linearGradient id="sunrise" x1="0%" x2="0%" y1="0%" y2="100%">
   <stop offset="0%"    stop-color= "#0abdc6" stop-opacity="1"/>
   <stop offset="100%"  stop-color= "#0abdc6" stop-opacity="1"/>
  </linearGradient>
  <linearGradient id="telinkrin" x1="0%" x2="0%" y1="0%" y2="100%">
   <stop offset="0%"    stop-color= "#0abdc6" stop-opacity="1"/>
   <stop offset="100%"  stop-color= "#0abdc6" stop-opacity="1"/>
  </linearGradient>
  <linearGradient id="60spsycho" x1="0%" x2="0%" y1="0%" y2="100%">
   <stop offset="0%"    stop-color= "#0abdc6" stop-opacity="1"/>
   <stop offset="25%"   stop-color= "#0abdc6" stop-opacity="1"/>
   <stop offset="50%"   stop-color= "#0abdc6" stop-opacity="1"/>
   <stop offset="100%"  stop-color= "#0abdc6" stop-opacity="1"/>
  </linearGradient>
  <linearGradient id="90ssummer" x1="0%" x2="0%" y1="0%" y2="100%">
   <stop offset="0%"    stop-color= "#0abdc6" stop-opacity="1"/>
   <stop offset="20%"   stop-color= "#0abdc6" stop-opacity="1"/>
   <stop offset="50%"   stop-color= "#0abdc6" stop-opacity="1"/>
   <stop offset="100%"  stop-color= "#0abdc6" stop-opacity="1"/>
  </linearGradient>
 </defs>
 <path fill="currentColor" class="ColorScheme-Text" d="M 8 2 A 6 6 0 0 0 2 8 A 6 6 0 0 0 8 14 A 6 6 0 0 0 14 8 A 6 6 0 0 0 8 2 z M 8 4 A 4 4 0 0 1 12 8 A 4 4 0 0 1 8 12 A 4 4 0 0 1 4 8 A 4 4 0 0 1 8 4 z"/>
 <path fill="currentColor" class="ColorScheme-Text" d="M 6,7 H 10 C 10.554,7 11,7.446 11,8 11,8.554 10.554,9 10,9 H 6 C 5.446,9 5,8.554 5,8 5,7.446 5.446,7 6,7 Z"/>
</svg>
