<svg xmlns="http://www.w3.org/2000/svg" width="24" height="24" version="1.1">
 <defs>
   <style id="current-color-scheme" type="text/css">
   .ColorScheme-Text { color: #D28C73; }
  </style>
  <linearGradient id="arrongin" x1="0%" x2="0%" y1="0%" y2="100%">
   <stop offset="0%"    stop-color= "#0abdc6" stop-opacity="1"/>
   <stop offset="100%"  stop-color= "#0abdc6" stop-opacity="1"/>
  </linearGradient>
  <linearGradient id="aurora" x1="0%" x2="0%" y1="0%" y2="100%">
   <stop offset="0%"    stop-color= "#0abdc6" stop-opacity="1"/>
   <stop offset="100%"  stop-color= "#0abdc6" stop-opacity="1"/>
  </linearGradient> 
  <linearGradient id="cyberblue" x1="0%" x2="0%" y1="0%" y2="100%">
   <stop offset="0%"    stop-color= "#0abdc6" stop-opacity="1"/>
   <stop offset="100%"  stop-color= "#0abdc6" stop-opacity="1"/>
  </linearGradient>
  <linearGradient id="cyberneon" x1="0%" x2="0%" y1="0%" y2="100%">
    <stop offset="0%"   stop-color= "#0abdc6" stop-opacity="1"/>
    <stop offset="100%" stop-color= "#0abdc6" stop-opacity="1"/>
  </linearGradient>
  <linearGradient id="fitdance" x1="0%" x2="0%" y1="0%" y2="100%">
   <stop offset="0%"    stop-color= "#0abdc6" stop-opacity="1"/>
   <stop offset="100%"  stop-color= "#0abdc6" stop-opacity="1"/>
  </linearGradient>
  <linearGradient id="oomox" x1="0%" x2="0%" y1="0%" y2="100%">
   <stop offset="0%"    stop-color= "#0abdc6" stop-opacity="1"/>
   <stop offset="100%"  stop-color= "#0abdc6" stop-opacity="1"/>
  </linearGradient>
  <linearGradient id="rainblue" x1="0%" x2="0%" y1="0%" y2="100%">
   <stop offset="0%"    stop-color= "#0abdc6" stop-opacity="1"/>
   <stop offset="100%"  stop-color= "#0abdc6" stop-opacity="1"/>
  </linearGradient>
  <linearGradient id="redcarbon" x1="0%" x2="0%" y1="0%" y2="100%">
   <stop offset="0%"    stop-color= "#0abdc6" stop-opacity="1"/>
   <stop offset="50%"   stop-color= "#0abdc6" stop-opacity="1"/>
   <stop offset="100%"  stop-color= "#0abdc6" stop-opacity="1"/>
  </linearGradient>
  <linearGradient id="sunrise" x1="0%" x2="0%" y1="0%" y2="100%">
   <stop offset="0%"    stop-color= "#0abdc6" stop-opacity="1"/>
   <stop offset="100%"  stop-color= "#0abdc6" stop-opacity="1"/>
  </linearGradient>
  <linearGradient id="telinkrin" x1="0%" x2="0%" y1="0%" y2="100%">
   <stop offset="0%"    stop-color= "#0abdc6" stop-opacity="1"/>
   <stop offset="100%"  stop-color= "#0abdc6" stop-opacity="1"/>
  </linearGradient>
  <linearGradient id="60spsycho" x1="0%" x2="0%" y1="0%" y2="100%">
   <stop offset="0%"    stop-color= "#0abdc6" stop-opacity="1"/>
   <stop offset="25%"   stop-color= "#0abdc6" stop-opacity="1"/>
   <stop offset="50%"   stop-color= "#0abdc6" stop-opacity="1"/>
   <stop offset="100%"  stop-color= "#0abdc6" stop-opacity="1"/>
  </linearGradient>
  <linearGradient id="90ssummer" x1="0%" x2="0%" y1="0%" y2="100%">
   <stop offset="0%"    stop-color= "#0abdc6" stop-opacity="1"/>
   <stop offset="20%"   stop-color= "#0abdc6" stop-opacity="1"/>
   <stop offset="50%"   stop-color= "#0abdc6" stop-opacity="1"/>
   <stop offset="100%"  stop-color= "#0abdc6" stop-opacity="1"/>
  </linearGradient>
 </defs>
 <path id="character-set" fill="currentColor" class="ColorScheme-Text" fill-rule="evenodd" d="M 5.198242 19.109375 L 5.198242 17.878906 L 6.25293 17.732422 L 11.223633 4.890625 L 12.874023 4.890625 L 17.756836 17.732422 L 18.801758 17.878906 L 18.801758 19.109375 L 14.719727 19.109375 L 14.719727 17.878906 L 15.793945 17.693359 L 14.856445 15.076172 L 9.163086 15.076172 L 8.196289 17.693359 L 9.270508 17.878906 L 9.270508 19.109375 L 5.198242 19.109375 Z M 12.004883 7.361328 L 9.758789 13.464844 L 14.270508 13.464844 L 12.063477 7.361328 L 12.004883 7.361328 Z"/>
</svg>
