<svg xmlns="http://www.w3.org/2000/svg" width="24" height="24" version="1.1">
 <defs>
   <style id="current-color-scheme" type="text/css">
   .ColorScheme-Text { color: #D28C73; }
  </style>
  <linearGradient id="arrongin" x1="0%" x2="0%" y1="0%" y2="100%">
   <stop offset="0%"    stop-color= "#0abdc6" stop-opacity="1"/>
   <stop offset="100%"  stop-color= "#0abdc6" stop-opacity="1"/>
  </linearGradient>
  <linearGradient id="aurora" x1="0%" x2="0%" y1="0%" y2="100%">
   <stop offset="0%"    stop-color= "#0abdc6" stop-opacity="1"/>
   <stop offset="100%"  stop-color= "#0abdc6" stop-opacity="1"/>
  </linearGradient> 
  <linearGradient id="cyberblue" x1="0%" x2="0%" y1="0%" y2="100%">
   <stop offset="0%"    stop-color= "#0abdc6" stop-opacity="1"/>
   <stop offset="100%"  stop-color= "#0abdc6" stop-opacity="1"/>
  </linearGradient>
  <linearGradient id="cyberneon" x1="0%" x2="0%" y1="0%" y2="100%">
    <stop offset="0%"   stop-color= "#0abdc6" stop-opacity="1"/>
    <stop offset="100%" stop-color= "#0abdc6" stop-opacity="1"/>
  </linearGradient>
  <linearGradient id="fitdance" x1="0%" x2="0%" y1="0%" y2="100%">
   <stop offset="0%"    stop-color= "#0abdc6" stop-opacity="1"/>
   <stop offset="100%"  stop-color= "#0abdc6" stop-opacity="1"/>
  </linearGradient>
  <linearGradient id="oomox" x1="0%" x2="0%" y1="0%" y2="100%">
   <stop offset="0%"    stop-color= "#0abdc6" stop-opacity="1"/>
   <stop offset="100%"  stop-color= "#0abdc6" stop-opacity="1"/>
  </linearGradient>
  <linearGradient id="rainblue" x1="0%" x2="0%" y1="0%" y2="100%">
   <stop offset="0%"    stop-color= "#0abdc6" stop-opacity="1"/>
   <stop offset="100%"  stop-color= "#0abdc6" stop-opacity="1"/>
  </linearGradient>
  <linearGradient id="redcarbon" x1="0%" x2="0%" y1="0%" y2="100%">
   <stop offset="0%"    stop-color= "#0abdc6" stop-opacity="1"/>
   <stop offset="50%"   stop-color= "#0abdc6" stop-opacity="1"/>
   <stop offset="100%"  stop-color= "#0abdc6" stop-opacity="1"/>
  </linearGradient>
  <linearGradient id="sunrise" x1="0%" x2="0%" y1="0%" y2="100%">
   <stop offset="0%"    stop-color= "#0abdc6" stop-opacity="1"/>
   <stop offset="100%"  stop-color= "#0abdc6" stop-opacity="1"/>
  </linearGradient>
  <linearGradient id="telinkrin" x1="0%" x2="0%" y1="0%" y2="100%">
   <stop offset="0%"    stop-color= "#0abdc6" stop-opacity="1"/>
   <stop offset="100%"  stop-color= "#0abdc6" stop-opacity="1"/>
  </linearGradient>
  <linearGradient id="60spsycho" x1="0%" x2="0%" y1="0%" y2="100%">
   <stop offset="0%"    stop-color= "#0abdc6" stop-opacity="1"/>
   <stop offset="25%"   stop-color= "#0abdc6" stop-opacity="1"/>
   <stop offset="50%"   stop-color= "#0abdc6" stop-opacity="1"/>
   <stop offset="100%"  stop-color= "#0abdc6" stop-opacity="1"/>
  </linearGradient>
  <linearGradient id="90ssummer" x1="0%" x2="0%" y1="0%" y2="100%">
   <stop offset="0%"    stop-color= "#0abdc6" stop-opacity="1"/>
   <stop offset="20%"   stop-color= "#0abdc6" stop-opacity="1"/>
   <stop offset="50%"   stop-color= "#0abdc6" stop-opacity="1"/>
   <stop offset="100%"  stop-color= "#0abdc6" stop-opacity="1"/>
  </linearGradient>
 </defs>
 <path fill="currentColor" class="ColorScheme-Text" d="M 0.5078125 3.0078125 A 0.50005 0.50005 0 0 0 0.0078125 3.5078125 L 0.0078125 20.492188 A 0.50005 0.50005 0 0 0 0.5078125 20.992188 L 7.5117188 20.992188 L 16.486328 20.992188 L 23.492188 20.992188 A 0.50005 0.50005 0 0 0 23.992188 20.492188 L 23.992188 3.5078125 A 0.50005 0.50005 0 0 0 23.492188 3.0078125 L 16.486328 3.0078125 L 7.5117188 3.0078125 L 0.5078125 3.0078125 z M 1.0078125 4.0078125 L 7.0117188 4.0078125 L 7.0117188 15.080078 L 3.9609375 15.080078 L 3.9609375 13.080078 L 1.0078125 15.541016 L 1.0078125 4.0078125 z M 8.0117188 4.0078125 L 15.986328 4.0078125 L 15.986328 15.080078 L 8.0117188 15.080078 L 8.0117188 4.0078125 z M 16.986328 4.0078125 L 22.992188 4.0078125 L 22.992188 15.541016 L 20.039062 13.080078 L 20.039062 15.080078 L 16.986328 15.080078 L 16.986328 4.0078125 z M 1.0078125 15.619141 L 3.9609375 18.080078 L 3.9609375 16.080078 L 7.0117188 16.080078 L 7.0117188 19.992188 L 1.0078125 19.992188 L 1.0078125 15.619141 z M 22.992188 15.619141 L 22.992188 19.992188 L 16.986328 19.992188 L 16.986328 16.080078 L 20.039062 16.080078 L 20.039062 18.080078 L 22.992188 15.619141 z M 8.0117188 16.080078 L 15.986328 16.080078 L 15.986328 19.992188 L 8.0117188 19.992188 L 8.0117188 16.080078 z"/>
 <path fill="currentColor" class="ColorScheme-Text" opacity="0.3" d="M 1 4 L 1 20 L 23 20 L 23 4 L 1 4 z"/>
</svg>
