<svg xmlns="http://www.w3.org/2000/svg" width="16" height="16" version="1.1">
 <defs>
   <style id="current-color-scheme" type="text/css">
   .ColorScheme-Text { color: #D28C73; }
  </style>
  <linearGradient id="arrongin" x1="0%" x2="0%" y1="0%" y2="100%">
   <stop offset="0%"    stop-color= "#0abdc6" stop-opacity="1"/>
   <stop offset="100%"  stop-color= "#0abdc6" stop-opacity="1"/>
  </linearGradient>
  <linearGradient id="aurora" x1="0%" x2="0%" y1="0%" y2="100%">
   <stop offset="0%"    stop-color= "#0abdc6" stop-opacity="1"/>
   <stop offset="100%"  stop-color= "#0abdc6" stop-opacity="1"/>
  </linearGradient> 
  <linearGradient id="cyberblue" x1="0%" x2="0%" y1="0%" y2="100%">
   <stop offset="0%"    stop-color= "#0abdc6" stop-opacity="1"/>
   <stop offset="100%"  stop-color= "#0abdc6" stop-opacity="1"/>
  </linearGradient>
  <linearGradient id="cyberneon" x1="0%" x2="0%" y1="0%" y2="100%">
    <stop offset="0%"   stop-color= "#0abdc6" stop-opacity="1"/>
    <stop offset="100%" stop-color= "#0abdc6" stop-opacity="1"/>
  </linearGradient>
  <linearGradient id="fitdance" x1="0%" x2="0%" y1="0%" y2="100%">
   <stop offset="0%"    stop-color= "#0abdc6" stop-opacity="1"/>
   <stop offset="100%"  stop-color= "#0abdc6" stop-opacity="1"/>
  </linearGradient>
  <linearGradient id="oomox" x1="0%" x2="0%" y1="0%" y2="100%">
   <stop offset="0%"    stop-color= "#0abdc6" stop-opacity="1"/>
   <stop offset="100%"  stop-color= "#0abdc6" stop-opacity="1"/>
  </linearGradient>
  <linearGradient id="rainblue" x1="0%" x2="0%" y1="0%" y2="100%">
   <stop offset="0%"    stop-color= "#0abdc6" stop-opacity="1"/>
   <stop offset="100%"  stop-color= "#0abdc6" stop-opacity="1"/>
  </linearGradient>
  <linearGradient id="redcarbon" x1="0%" x2="0%" y1="0%" y2="100%">
   <stop offset="0%"    stop-color= "#0abdc6" stop-opacity="1"/>
   <stop offset="50%"   stop-color= "#0abdc6" stop-opacity="1"/>
   <stop offset="100%"  stop-color= "#0abdc6" stop-opacity="1"/>
  </linearGradient>
  <linearGradient id="sunrise" x1="0%" x2="0%" y1="0%" y2="100%">
   <stop offset="0%"    stop-color= "#0abdc6" stop-opacity="1"/>
   <stop offset="100%"  stop-color= "#0abdc6" stop-opacity="1"/>
  </linearGradient>
  <linearGradient id="telinkrin" x1="0%" x2="0%" y1="0%" y2="100%">
   <stop offset="0%"    stop-color= "#0abdc6" stop-opacity="1"/>
   <stop offset="100%"  stop-color= "#0abdc6" stop-opacity="1"/>
  </linearGradient>
  <linearGradient id="60spsycho" x1="0%" x2="0%" y1="0%" y2="100%">
   <stop offset="0%"    stop-color= "#0abdc6" stop-opacity="1"/>
   <stop offset="25%"   stop-color= "#0abdc6" stop-opacity="1"/>
   <stop offset="50%"   stop-color= "#0abdc6" stop-opacity="1"/>
   <stop offset="100%"  stop-color= "#0abdc6" stop-opacity="1"/>
  </linearGradient>
  <linearGradient id="90ssummer" x1="0%" x2="0%" y1="0%" y2="100%">
   <stop offset="0%"    stop-color= "#0abdc6" stop-opacity="1"/>
   <stop offset="20%"   stop-color= "#0abdc6" stop-opacity="1"/>
   <stop offset="50%"   stop-color= "#0abdc6" stop-opacity="1"/>
   <stop offset="100%"  stop-color= "#0abdc6" stop-opacity="1"/>
  </linearGradient>
 </defs>
 <defs>
  <linearGradient id="linearGradient4202" x1="1" x2="8" y1="8" y2="1" gradientUnits="userSpaceOnUse">
   <stop offset="0" stop-color= "#0abdc6"/>
   <stop offset=".313" stop-color= "#0abdc6"/>
   <stop offset=".563" stop-color= "#0abdc6"/>
   <stop offset=".75" stop-color= "#0abdc6"/>
   <stop offset="1" stop-color= "#0abdc6"/>
  </linearGradient>
  <linearGradient id="linearGradient4204" x1="1" x2="8" y1="8" y2="15" gradientUnits="userSpaceOnUse">
   <stop offset="0" stop-color= "#0abdc6"/>
   <stop offset=".313" stop-color= "#0abdc6"/>
   <stop offset=".563" stop-color= "#0abdc6"/>
   <stop offset=".75" stop-color= "#0abdc6"/>
   <stop offset="1" stop-color= "#0abdc6"/>
  </linearGradient>
  <linearGradient id="linearGradient4206" x1="15" x2="8" y1="8" y2="1" gradientUnits="userSpaceOnUse">
   <stop offset="0" stop-color= "#0abdc6"/>
   <stop offset=".313" stop-color= "#0abdc6"/>
   <stop offset=".563" stop-color= "#0abdc6"/>
   <stop offset=".75" stop-color= "#0abdc6"/>
   <stop offset="1" stop-color= "#0abdc6"/>
  </linearGradient>
  <linearGradient id="linearGradient4208" x1="15" x2="8" y1="8" y2="15" gradientUnits="userSpaceOnUse">
   <stop offset="0" stop-color= "#0abdc6"/>
   <stop offset=".313" stop-color= "#0abdc6"/>
   <stop offset=".563" stop-color= "#0abdc6"/>
   <stop offset=".75" stop-color= "#0abdc6"/>
   <stop offset="1" stop-color= "#0abdc6"/>
  </linearGradient>
 </defs>
 <g>
  <g transform="rotate(15,8,8)">
   <path style="fill:url(#linearGradient4206)" d="M 8,1 V 8 H 15 A 7,7 0 0 0 8,1 Z"/>
   <path style="fill:url(#linearGradient4202)" d="M 8,1 A 7,7 0 0 0 1,8 H 8 Z"/>
   <path style="fill:url(#linearGradient4208)" d="M 8,8 V 15 A 7,7 0 0 0 15,8 Z"/>
   <path style="fill:url(#linearGradient4204)" d="M 1,8 A 7,7 0 0 0 8,15 V 8 Z"/>
  </g>
  <g style="opacity:0.7">
   <path style="fill:url(#linearGradient4206)" d="M 8,1 V 8 H 15 A 7,7 0 0 0 8,1 Z"/>
   <path style="fill:url(#linearGradient4202)" d="M 8,1 A 7,7 0 0 0 1,8 H 8 Z"/>
   <path style="fill:url(#linearGradient4208)" d="M 8,8 V 15 A 7,7 0 0 0 15,8 Z"/>
   <path style="fill:url(#linearGradient4204)" d="M 1,8 A 7,7 0 0 0 8,15 V 8 Z"/>
  </g>
  <g style="opacity:0.35" transform="rotate(45,8,8)">
   <path style="fill:url(#linearGradient4206)" d="M 8,1 V 8 H 15 A 7,7 0 0 0 8,1 Z"/>
   <path style="fill:url(#linearGradient4202)" d="M 8,1 A 7,7 0 0 0 1,8 H 8 Z"/>
   <path style="fill:url(#linearGradient4208)" d="M 8,8 V 15 A 7,7 0 0 0 15,8 Z"/>
   <path style="fill:url(#linearGradient4204)" d="M 1,8 A 7,7 0 0 0 8,15 V 8 Z"/>
  </g>
  <g style="opacity:0.3" transform="rotate(60,8,8)">
   <path style="fill:url(#linearGradient4206)" d="M 8,1 V 8 H 15 A 7,7 0 0 0 8,1 Z"/>
   <path style="fill:url(#linearGradient4202)" d="M 8,1 A 7,7 0 0 0 1,8 H 8 Z"/>
   <path style="fill:url(#linearGradient4208)" d="M 8,8 V 15 A 7,7 0 0 0 15,8 Z"/>
   <path style="fill:url(#linearGradient4204)" d="M 1,8 A 7,7 0 0 0 8,15 V 8 Z"/>
  </g>
 </g>
</svg>
