<svg xmlns="http://www.w3.org/2000/svg" width="16" height="16" version="1.1">
 <defs>
   <style id="current-color-scheme" type="text/css">
   .ColorScheme-Text { color: #D28C73; }
  </style>
  <linearGradient id="arrongin" x1="0%" x2="0%" y1="0%" y2="100%">
   <stop offset="0%"    stop-color= "#0abdc6" stop-opacity="1"/>
   <stop offset="100%"  stop-color= "#0abdc6" stop-opacity="1"/>
  </linearGradient>
  <linearGradient id="aurora" x1="0%" x2="0%" y1="0%" y2="100%">
   <stop offset="0%"    stop-color= "#0abdc6" stop-opacity="1"/>
   <stop offset="100%"  stop-color= "#0abdc6" stop-opacity="1"/>
  </linearGradient> 
  <linearGradient id="cyberblue" x1="0%" x2="0%" y1="0%" y2="100%">
   <stop offset="0%"    stop-color= "#0abdc6" stop-opacity="1"/>
   <stop offset="100%"  stop-color= "#0abdc6" stop-opacity="1"/>
  </linearGradient>
  <linearGradient id="cyberneon" x1="0%" x2="0%" y1="0%" y2="100%">
    <stop offset="0%"   stop-color= "#0abdc6" stop-opacity="1"/>
    <stop offset="100%" stop-color= "#0abdc6" stop-opacity="1"/>
  </linearGradient>
  <linearGradient id="fitdance" x1="0%" x2="0%" y1="0%" y2="100%">
   <stop offset="0%"    stop-color= "#0abdc6" stop-opacity="1"/>
   <stop offset="100%"  stop-color= "#0abdc6" stop-opacity="1"/>
  </linearGradient>
  <linearGradient id="oomox" x1="0%" x2="0%" y1="0%" y2="100%">
   <stop offset="0%"    stop-color= "#0abdc6" stop-opacity="1"/>
   <stop offset="100%"  stop-color= "#0abdc6" stop-opacity="1"/>
  </linearGradient>
  <linearGradient id="rainblue" x1="0%" x2="0%" y1="0%" y2="100%">
   <stop offset="0%"    stop-color= "#0abdc6" stop-opacity="1"/>
   <stop offset="100%"  stop-color= "#0abdc6" stop-opacity="1"/>
  </linearGradient>
  <linearGradient id="redcarbon" x1="0%" x2="0%" y1="0%" y2="100%">
   <stop offset="0%"    stop-color= "#0abdc6" stop-opacity="1"/>
   <stop offset="50%"   stop-color= "#0abdc6" stop-opacity="1"/>
   <stop offset="100%"  stop-color= "#0abdc6" stop-opacity="1"/>
  </linearGradient>
  <linearGradient id="sunrise" x1="0%" x2="0%" y1="0%" y2="100%">
   <stop offset="0%"    stop-color= "#0abdc6" stop-opacity="1"/>
   <stop offset="100%"  stop-color= "#0abdc6" stop-opacity="1"/>
  </linearGradient>
  <linearGradient id="telinkrin" x1="0%" x2="0%" y1="0%" y2="100%">
   <stop offset="0%"    stop-color= "#0abdc6" stop-opacity="1"/>
   <stop offset="100%"  stop-color= "#0abdc6" stop-opacity="1"/>
  </linearGradient>
  <linearGradient id="60spsycho" x1="0%" x2="0%" y1="0%" y2="100%">
   <stop offset="0%"    stop-color= "#0abdc6" stop-opacity="1"/>
   <stop offset="25%"   stop-color= "#0abdc6" stop-opacity="1"/>
   <stop offset="50%"   stop-color= "#0abdc6" stop-opacity="1"/>
   <stop offset="100%"  stop-color= "#0abdc6" stop-opacity="1"/>
  </linearGradient>
  <linearGradient id="90ssummer" x1="0%" x2="0%" y1="0%" y2="100%">
   <stop offset="0%"    stop-color= "#0abdc6" stop-opacity="1"/>
   <stop offset="20%"   stop-color= "#0abdc6" stop-opacity="1"/>
   <stop offset="50%"   stop-color= "#0abdc6" stop-opacity="1"/>
   <stop offset="100%"  stop-color= "#0abdc6" stop-opacity="1"/>
  </linearGradient>
 </defs>
 <path fill="currentColor" class="ColorScheme-Text" d="M 7.4921875 -0.00390625 L 7.5 0 A 1.5 1.5 0 0 0 6 1.5 A 1.5 1.5 0 0 0 6.1132812 2.0703125 L 2.2207031 5.1855469 A 1.5 1.5 0 0 0 1.5 5 A 1.5 1.5 0 0 0 0 6.5 A 1.5 1.5 0 0 0 1 7.9121094 L 1 13.087891 A 1.5 1.5 0 0 0 0 14.5 A 1.5 1.5 0 0 0 1.5 16 A 1.5 1.5 0 0 0 2.9121094 15 L 7.0878906 15 A 1.5 1.5 0 0 0 8.5 16 A 1.5 1.5 0 0 0 10 14.5 A 1.5 1.5 0 0 0 9.8144531 13.783203 L 12.931641 9.8867188 A 1.5 1.5 0 0 0 13.5 10 A 1.5 1.5 0 0 0 15 8.5 A 1.5 1.5 0 0 0 13.5 7 A 1.5 1.5 0 0 0 12.916016 7.1191406 L 8.8222656 2.2070312 A 1.5 1.5 0 0 0 8.9921875 1.4960938 A 1.5 1.5 0 0 0 7.4921875 -0.00390625 z M 6.78125 2.8164062 A 1.5 1.5 0 0 0 7.5 3 A 1.5 1.5 0 0 0 8.0820312 2.8808594 L 12.177734 7.7949219 A 1.5 1.5 0 0 0 11.998047 8.5058594 A 1.5 1.5 0 0 0 12.183594 9.2246094 L 9.0683594 13.119141 A 1.5 1.5 0 0 0 8.4980469 13.007812 A 1.5 1.5 0 0 0 7.0859375 14.007812 L 2.9101562 14.007812 A 1.5 1.5 0 0 0 2 13.097656 L 2 7.921875 A 1.5 1.5 0 0 0 3 6.5097656 A 1.5 1.5 0 0 0 2.8867188 5.9414062 L 6.78125 2.8261719 L 6.78125 2.8164062 z"/>
</svg>
