<svg xmlns="http://www.w3.org/2000/svg" width="16" height="16" version="1.1">
 <defs>
   <style id="current-color-scheme" type="text/css">
   .ColorScheme-Text { color: #D28C73; }
  </style>
  <linearGradient id="arrongin" x1="0%" x2="0%" y1="0%" y2="100%">
   <stop offset="0%"    stop-color= "#0abdc6" stop-opacity="1"/>
   <stop offset="100%"  stop-color= "#0abdc6" stop-opacity="1"/>
  </linearGradient>
  <linearGradient id="aurora" x1="0%" x2="0%" y1="0%" y2="100%">
   <stop offset="0%"    stop-color= "#0abdc6" stop-opacity="1"/>
   <stop offset="100%"  stop-color= "#0abdc6" stop-opacity="1"/>
  </linearGradient> 
  <linearGradient id="cyberblue" x1="0%" x2="0%" y1="0%" y2="100%">
   <stop offset="0%"    stop-color= "#0abdc6" stop-opacity="1"/>
   <stop offset="100%"  stop-color= "#0abdc6" stop-opacity="1"/>
  </linearGradient>
  <linearGradient id="cyberneon" x1="0%" x2="0%" y1="0%" y2="100%">
    <stop offset="0%"   stop-color= "#0abdc6" stop-opacity="1"/>
    <stop offset="100%" stop-color= "#0abdc6" stop-opacity="1"/>
  </linearGradient>
  <linearGradient id="fitdance" x1="0%" x2="0%" y1="0%" y2="100%">
   <stop offset="0%"    stop-color= "#0abdc6" stop-opacity="1"/>
   <stop offset="100%"  stop-color= "#0abdc6" stop-opacity="1"/>
  </linearGradient>
  <linearGradient id="oomox" x1="0%" x2="0%" y1="0%" y2="100%">
   <stop offset="0%"    stop-color= "#0abdc6" stop-opacity="1"/>
   <stop offset="100%"  stop-color= "#0abdc6" stop-opacity="1"/>
  </linearGradient>
  <linearGradient id="rainblue" x1="0%" x2="0%" y1="0%" y2="100%">
   <stop offset="0%"    stop-color= "#0abdc6" stop-opacity="1"/>
   <stop offset="100%"  stop-color= "#0abdc6" stop-opacity="1"/>
  </linearGradient>
  <linearGradient id="redcarbon" x1="0%" x2="0%" y1="0%" y2="100%">
   <stop offset="0%"    stop-color= "#0abdc6" stop-opacity="1"/>
   <stop offset="50%"   stop-color= "#0abdc6" stop-opacity="1"/>
   <stop offset="100%"  stop-color= "#0abdc6" stop-opacity="1"/>
  </linearGradient>
  <linearGradient id="sunrise" x1="0%" x2="0%" y1="0%" y2="100%">
   <stop offset="0%"    stop-color= "#0abdc6" stop-opacity="1"/>
   <stop offset="100%"  stop-color= "#0abdc6" stop-opacity="1"/>
  </linearGradient>
  <linearGradient id="telinkrin" x1="0%" x2="0%" y1="0%" y2="100%">
   <stop offset="0%"    stop-color= "#0abdc6" stop-opacity="1"/>
   <stop offset="100%"  stop-color= "#0abdc6" stop-opacity="1"/>
  </linearGradient>
  <linearGradient id="60spsycho" x1="0%" x2="0%" y1="0%" y2="100%">
   <stop offset="0%"    stop-color= "#0abdc6" stop-opacity="1"/>
   <stop offset="25%"   stop-color= "#0abdc6" stop-opacity="1"/>
   <stop offset="50%"   stop-color= "#0abdc6" stop-opacity="1"/>
   <stop offset="100%"  stop-color= "#0abdc6" stop-opacity="1"/>
  </linearGradient>
  <linearGradient id="90ssummer" x1="0%" x2="0%" y1="0%" y2="100%">
   <stop offset="0%"    stop-color= "#0abdc6" stop-opacity="1"/>
   <stop offset="20%"   stop-color= "#0abdc6" stop-opacity="1"/>
   <stop offset="50%"   stop-color= "#0abdc6" stop-opacity="1"/>
   <stop offset="100%"  stop-color= "#0abdc6" stop-opacity="1"/>
  </linearGradient>
 </defs>
 <path fill="currentColor" class="ColorScheme-Text" d="m1 1v14h14v-14h-14zm2 2h10v10h-4v-3.2773c0.5956-0.3464 1-0.984 1-1.7227 0-1.1046-0.8954-2-2-2s-2 0.8954-2 2c0 0.7387 0.4044 1.3763 1 1.7227v3.2773h-4v-10z"/>
</svg>
