<svg xmlns="http://www.w3.org/2000/svg" width="16" height="16" version="1.1">
 <defs>
   <style id="current-color-scheme" type="text/css">
   .ColorScheme-Text { color: #D28C73; }
  </style>
  <linearGradient id="arrongin" x1="0%" x2="0%" y1="0%" y2="100%">
   <stop offset="0%"    stop-color= "#0abdc6" stop-opacity="1"/>
   <stop offset="100%"  stop-color= "#0abdc6" stop-opacity="1"/>
  </linearGradient>
  <linearGradient id="aurora" x1="0%" x2="0%" y1="0%" y2="100%">
   <stop offset="0%"    stop-color= "#0abdc6" stop-opacity="1"/>
   <stop offset="100%"  stop-color= "#0abdc6" stop-opacity="1"/>
  </linearGradient> 
  <linearGradient id="cyberblue" x1="0%" x2="0%" y1="0%" y2="100%">
   <stop offset="0%"    stop-color= "#0abdc6" stop-opacity="1"/>
   <stop offset="100%"  stop-color= "#0abdc6" stop-opacity="1"/>
  </linearGradient>
  <linearGradient id="cyberneon" x1="0%" x2="0%" y1="0%" y2="100%">
    <stop offset="0%"   stop-color= "#0abdc6" stop-opacity="1"/>
    <stop offset="100%" stop-color= "#0abdc6" stop-opacity="1"/>
  </linearGradient>
  <linearGradient id="fitdance" x1="0%" x2="0%" y1="0%" y2="100%">
   <stop offset="0%"    stop-color= "#0abdc6" stop-opacity="1"/>
   <stop offset="100%"  stop-color= "#0abdc6" stop-opacity="1"/>
  </linearGradient>
  <linearGradient id="oomox" x1="0%" x2="0%" y1="0%" y2="100%">
   <stop offset="0%"    stop-color= "#0abdc6" stop-opacity="1"/>
   <stop offset="100%"  stop-color= "#0abdc6" stop-opacity="1"/>
  </linearGradient>
  <linearGradient id="rainblue" x1="0%" x2="0%" y1="0%" y2="100%">
   <stop offset="0%"    stop-color= "#0abdc6" stop-opacity="1"/>
   <stop offset="100%"  stop-color= "#0abdc6" stop-opacity="1"/>
  </linearGradient>
  <linearGradient id="redcarbon" x1="0%" x2="0%" y1="0%" y2="100%">
   <stop offset="0%"    stop-color= "#0abdc6" stop-opacity="1"/>
   <stop offset="50%"   stop-color= "#0abdc6" stop-opacity="1"/>
   <stop offset="100%"  stop-color= "#0abdc6" stop-opacity="1"/>
  </linearGradient>
  <linearGradient id="sunrise" x1="0%" x2="0%" y1="0%" y2="100%">
   <stop offset="0%"    stop-color= "#0abdc6" stop-opacity="1"/>
   <stop offset="100%"  stop-color= "#0abdc6" stop-opacity="1"/>
  </linearGradient>
  <linearGradient id="telinkrin" x1="0%" x2="0%" y1="0%" y2="100%">
   <stop offset="0%"    stop-color= "#0abdc6" stop-opacity="1"/>
   <stop offset="100%"  stop-color= "#0abdc6" stop-opacity="1"/>
  </linearGradient>
  <linearGradient id="60spsycho" x1="0%" x2="0%" y1="0%" y2="100%">
   <stop offset="0%"    stop-color= "#0abdc6" stop-opacity="1"/>
   <stop offset="25%"   stop-color= "#0abdc6" stop-opacity="1"/>
   <stop offset="50%"   stop-color= "#0abdc6" stop-opacity="1"/>
   <stop offset="100%"  stop-color= "#0abdc6" stop-opacity="1"/>
  </linearGradient>
  <linearGradient id="90ssummer" x1="0%" x2="0%" y1="0%" y2="100%">
   <stop offset="0%"    stop-color= "#0abdc6" stop-opacity="1"/>
   <stop offset="20%"   stop-color= "#0abdc6" stop-opacity="1"/>
   <stop offset="50%"   stop-color= "#0abdc6" stop-opacity="1"/>
   <stop offset="100%"  stop-color= "#0abdc6" stop-opacity="1"/>
  </linearGradient>
 </defs>
 <path fill="currentColor" class="ColorScheme-Text" d="M 8 0 C 5.2386 0 3 2.2386 3 5 C 3 7.7614 5.2386 10 8 10 C 10.7614 10 13 7.7614 13 5 C 13 2.2386 10.7614 0 8 0 z M 5 12 L 8 16 L 11 12 L 5 12 z"/>
</svg>
