<svg xmlns="http://www.w3.org/2000/svg" width="16" height="16" version="1.1">
 <defs>
   <style id="current-color-scheme" type="text/css">
   .ColorScheme-Text { color: #D28C73; }
  </style>
  <linearGradient id="arrongin" x1="0%" x2="0%" y1="0%" y2="100%">
   <stop offset="0%"    stop-color= "#0abdc6" stop-opacity="1"/>
   <stop offset="100%"  stop-color= "#0abdc6" stop-opacity="1"/>
  </linearGradient>
  <linearGradient id="aurora" x1="0%" x2="0%" y1="0%" y2="100%">
   <stop offset="0%"    stop-color= "#0abdc6" stop-opacity="1"/>
   <stop offset="100%"  stop-color= "#0abdc6" stop-opacity="1"/>
  </linearGradient> 
  <linearGradient id="cyberblue" x1="0%" x2="0%" y1="0%" y2="100%">
   <stop offset="0%"    stop-color= "#0abdc6" stop-opacity="1"/>
   <stop offset="100%"  stop-color= "#0abdc6" stop-opacity="1"/>
  </linearGradient>
  <linearGradient id="cyberneon" x1="0%" x2="0%" y1="0%" y2="100%">
    <stop offset="0%"   stop-color= "#0abdc6" stop-opacity="1"/>
    <stop offset="100%" stop-color= "#0abdc6" stop-opacity="1"/>
  </linearGradient>
  <linearGradient id="fitdance" x1="0%" x2="0%" y1="0%" y2="100%">
   <stop offset="0%"    stop-color= "#0abdc6" stop-opacity="1"/>
   <stop offset="100%"  stop-color= "#0abdc6" stop-opacity="1"/>
  </linearGradient>
  <linearGradient id="oomox" x1="0%" x2="0%" y1="0%" y2="100%">
   <stop offset="0%"    stop-color= "#0abdc6" stop-opacity="1"/>
   <stop offset="100%"  stop-color= "#0abdc6" stop-opacity="1"/>
  </linearGradient>
  <linearGradient id="rainblue" x1="0%" x2="0%" y1="0%" y2="100%">
   <stop offset="0%"    stop-color= "#0abdc6" stop-opacity="1"/>
   <stop offset="100%"  stop-color= "#0abdc6" stop-opacity="1"/>
  </linearGradient>
  <linearGradient id="redcarbon" x1="0%" x2="0%" y1="0%" y2="100%">
   <stop offset="0%"    stop-color= "#0abdc6" stop-opacity="1"/>
   <stop offset="50%"   stop-color= "#0abdc6" stop-opacity="1"/>
   <stop offset="100%"  stop-color= "#0abdc6" stop-opacity="1"/>
  </linearGradient>
  <linearGradient id="sunrise" x1="0%" x2="0%" y1="0%" y2="100%">
   <stop offset="0%"    stop-color= "#0abdc6" stop-opacity="1"/>
   <stop offset="100%"  stop-color= "#0abdc6" stop-opacity="1"/>
  </linearGradient>
  <linearGradient id="telinkrin" x1="0%" x2="0%" y1="0%" y2="100%">
   <stop offset="0%"    stop-color= "#0abdc6" stop-opacity="1"/>
   <stop offset="100%"  stop-color= "#0abdc6" stop-opacity="1"/>
  </linearGradient>
  <linearGradient id="60spsycho" x1="0%" x2="0%" y1="0%" y2="100%">
   <stop offset="0%"    stop-color= "#0abdc6" stop-opacity="1"/>
   <stop offset="25%"   stop-color= "#0abdc6" stop-opacity="1"/>
   <stop offset="50%"   stop-color= "#0abdc6" stop-opacity="1"/>
   <stop offset="100%"  stop-color= "#0abdc6" stop-opacity="1"/>
  </linearGradient>
  <linearGradient id="90ssummer" x1="0%" x2="0%" y1="0%" y2="100%">
   <stop offset="0%"    stop-color= "#0abdc6" stop-opacity="1"/>
   <stop offset="20%"   stop-color= "#0abdc6" stop-opacity="1"/>
   <stop offset="50%"   stop-color= "#0abdc6" stop-opacity="1"/>
   <stop offset="100%"  stop-color= "#0abdc6" stop-opacity="1"/>
  </linearGradient>
 </defs>
 <path fill="currentColor" class="ColorScheme-Text" d="M 2 1 C 2 1 1.9237594 1.0041375 1.8183594 1.0234375 C 1.6141594 1.0536375 1.4597031 1.1268625 1.3457031 1.2265625 C 1.3236031 1.2434625 1.30225 1.26165 1.28125 1.28125 C 1.26165 1.30225 1.2434625 1.3236031 1.2265625 1.3457031 C 1.1268625 1.4597031 1.0536375 1.6141594 1.0234375 1.8183594 C 1.0041375 1.9237594 1 2 1 2 L 1 14 C 1 15 2 15 2 15 L 14 15 C 14 15 15 15 15 14 L 15 2 C 15 2 14.995563 1.9237594 14.976562 1.8183594 C 14.945562 1.6141594 14.873437 1.4597031 14.773438 1.3457031 C 14.756438 1.3236031 14.73775 1.30225 14.71875 1.28125 C 14.69775 1.26165 14.676297 1.2434625 14.654297 1.2265625 C 14.540297 1.1268625 14.385641 1.0536375 14.181641 1.0234375 C 14.075641 1.0041375 14 1 14 1 L 2 1 z M 3 6 L 13 6 L 13 13 L 3 13 L 3 6 z"/>
</svg>
